<?xml version="1.0" standalone="no"?>
<!DOCTYPE svg PUBLIC "-//W3C//DTD SVG 20010904//EN"
 "http://www.w3.org/TR/2001/REC-SVG-20010904/DTD/svg10.dtd">
<svg version="1.0" xmlns="http://www.w3.org/2000/svg"
 viewBox="0 0 2600.000000 2600.000000"
 preserveAspectRatio="xMidYMid meet">
<metadata>
Created by potrace 1.15, written by Peter Selinger 2001-2017
</metadata>
<g transform="translate(0.000000,2600.000000) scale(0.100000,-0.100000)"
fill="#28c896" stroke="none">
<path d="M13190 19549 c-2464 -91 -4714 -1537 -5840 -3754 -692 -1364 -906
-2930 -604 -4435 97 -485 267 -1015 471 -1467 336 -745 809 -1429 1398 -2018
567 -568 1167 -996 1877 -1339 737 -356 1489 -566 2348 -653 141 -15 263 -18
630 -18 492 1 642 11 1030 71 1352 209 2602 812 3604 1740 1134 1049 1871
2419 2120 3942 101 615 112 1340 31 1967 -178 1373 -770 2659 -1701 3695 -134
150 -460 471 -599 591 -1100 949 -2409 1512 -3845 1654 -134 13 -637 37 -695
33 -11 -1 -112 -5 -225 -9z m743 -1425 c1112 -94 2149 -523 3028 -1255 158
-132 526 -498 657 -655 651 -781 1058 -1668 1216 -2655 50 -310 61 -457 61
-849 0 -381 -6 -476 -51 -788 -143 -1000 -557 -1920 -1228 -2727 -133 -159
-489 -514 -651 -649 -357 -296 -684 -511 -1082 -710 -635 -317 -1293 -499
-2012 -555 -172 -14 -637 -14 -812 -1 -1575 121 -2998 901 -3949 2165 -349
464 -626 992 -810 1545 -323 967 -365 2021 -121 3015 205 830 598 1592 1162
2250 218 254 551 567 828 779 143 109 447 311 601 398 968 550 2049 787 3163
692z"/>
<path d="M11716 15769 c-141 -35 -287 -153 -351 -284 -59 -120 -55 67 -55
-2775 0 -2847 -4 -2661 57 -2788 37 -76 159 -198 235 -235 132 -63 276 -75
403 -32 54 18 670 368 2242 1276 1192 688 2204 1273 2249 1300 190 114 284
272 284 476 0 198 -91 355 -271 465 -207 128 -4423 2555 -4474 2576 -49 21
-80 26 -170 28 -60 2 -127 -1 -149 -7z"/>
</g>
</svg>
